<svg xmlns="http://www.w3.org/2000/svg" xmlns:xlink="http://www.w3.org/1999/xlink" width="500" zoomAndPan="magnify" viewBox="0 0 375 187.499995" height="250" preserveAspectRatio="xMidYMid meet" version="1.0"><defs><g/></defs><g  ><g transform="translate(25.209035, 114.920621)"><g><path d="M 15.058594 0 L 15.058594 -19.132812 L 14.574219 -26.871094 L 15.472656 -26.871094 L 18.097656 -19.132812 L 25.003906 -2.761719 L 40.753906 -2.761719 L 47.660156 -19.132812 L 50.285156 -26.871094 L 51.183594 -26.871094 L 50.699219 -19.132812 L 50.699219 0 L 63.6875 0 L 63.6875 -46.28125 L 46.074219 -46.28125 L 37.992188 -27.078125 L 33.640625 -15.128906 L 32.742188 -15.128906 L 28.183594 -27.078125 L 19.6875 -46.28125 L 2.070312 -46.28125 L 2.070312 0 Z M 15.058594 0 "/></g></g></g><g  ><g transform="translate(90.967236, 114.920621)"><g><path d="M 21.480469 0.691406 C 33.226562 0.691406 40.617188 -4.765625 40.617188 -12.503906 L 40.617188 -13.332031 L 27.628906 -13.332031 L 27.628906 -12.570312 C 27.628906 -10.5 26.25 -9.601562 21 -9.601562 C 15.472656 -9.601562 13.609375 -10.777344 13.402344 -14.988281 L 40.683594 -14.988281 C 40.824219 -16.234375 40.890625 -17.128906 40.890625 -18.304688 C 40.890625 -29.496094 33.226562 -35.503906 21.207031 -35.503906 C 9.601562 -35.503906 1.382812 -28.734375 1.382812 -17.40625 C 1.382812 -4.351562 9.671875 0.691406 21.480469 0.691406 Z M 20.929688 -25.558594 C 25.765625 -25.558594 27.835938 -24.523438 28.320312 -21.550781 L 13.609375 -21.550781 C 14.160156 -24.523438 16.164062 -25.558594 20.929688 -25.558594 Z M 20.929688 -25.558594 "/></g></g></g><g  ><g transform="translate(133.240367, 114.920621)"><g><path d="M 28.113281 0 L 28.113281 -11.671875 L 21.898438 -11.671875 C 18.925781 -11.671875 18.097656 -12.363281 18.097656 -15.128906 L 18.097656 -24.175781 L 28.113281 -24.175781 L 28.113281 -34.8125 L 18.097656 -34.8125 L 18.097656 -40.824219 L 5.113281 -40.824219 L 5.113281 -34.8125 L 0 -34.8125 L 0 -24.175781 L 5.113281 -24.175781 L 5.113281 -13.261719 C 5.113281 -4.214844 10.292969 0 18.996094 0 Z M 28.113281 0 "/></g></g></g><g  ><g transform="translate(162.389489, 114.920621)"><g><path d="M 13.332031 0.691406 C 20.859375 0.691406 25.144531 -2.417969 26.457031 -7.320312 L 27.148438 -7.320312 L 27.148438 0 L 39.304688 0 L 39.304688 -19.824219 C 39.304688 -29.5625 33.433594 -35.503906 21.273438 -35.503906 C 9.464844 -35.503906 1.726562 -29.5625 1.726562 -20.308594 L 1.726562 -20.167969 L 14.714844 -20.167969 L 14.714844 -20.445312 C 14.714844 -23.347656 16.027344 -24.175781 20.308594 -24.175781 C 24.9375 -24.175781 26.457031 -23.625 26.457031 -20.101562 L 26.457031 -19.410156 L 12.296875 -18.027344 C 4.421875 -17.269531 1.035156 -13.746094 1.035156 -8.839844 C 1.035156 -2.902344 5.457031 0.691406 13.332031 0.691406 Z M 14.089844 -9.671875 C 14.089844 -10.429688 14.574219 -10.84375 15.75 -10.984375 L 26.386719 -12.226562 C 26.042969 -9.117188 23.484375 -8.359375 17.199219 -8.359375 C 15.195312 -8.359375 14.089844 -8.566406 14.089844 -9.671875 Z M 14.089844 -9.671875 "/></g></g></g><g  ><g transform="translate(203.488368, 114.920621)"><g><path d="M 15.058594 0 L 15.058594 -15.75 L 20.378906 -15.75 C 25.417969 -15.75 26.800781 -14.78125 28.457031 -11.328125 L 33.984375 0 L 48.972656 0 L 43.242188 -11.605469 C 41.515625 -15.128906 39.996094 -17.40625 35.226562 -18.648438 L 35.226562 -19.339844 C 44.070312 -20.445312 47.730469 -24.796875 47.730469 -32.121094 C 47.730469 -41.167969 41.308594 -46.28125 29.082031 -46.28125 L 2.070312 -46.28125 L 2.070312 0 Z M 15.058594 -34.605469 L 28.941406 -34.605469 C 32.742188 -34.605469 34.125 -33.707031 34.125 -30.046875 C 34.125 -26.109375 32.742188 -25.417969 28.941406 -25.417969 L 15.058594 -25.417969 Z M 15.058594 -34.605469 "/></g></g></g><g  ><g transform="translate(252.461665, 114.920621)"><g><path d="M 15.058594 -37.992188 L 15.058594 -46.28125 L 2.070312 -46.28125 L 2.070312 -37.992188 Z M 15.058594 0 L 15.058594 -34.8125 L 2.070312 -34.8125 L 2.070312 0 Z M 15.058594 0 "/></g></g></g><g  ><g transform="translate(269.59194, 114.920621)"><g><path d="M 38.890625 0 L 38.890625 -11.328125 L 24.175781 -11.328125 L 17.40625 -10.636719 L 17.40625 -11.535156 L 24.175781 -14.988281 L 37.851562 -23.761719 L 37.851562 -34.8125 L 2.070312 -34.8125 L 2.070312 -23.484375 L 13.609375 -23.484375 L 20.859375 -24.039062 L 20.859375 -23.140625 L 13.609375 -19.480469 L 1.035156 -11.050781 L 1.035156 0 Z M 38.890625 0 "/></g></g></g><g  ><g transform="translate(309.516567, 114.920621)"><g><path d="M 38.890625 0 L 38.890625 -11.328125 L 24.175781 -11.328125 L 17.40625 -10.636719 L 17.40625 -11.535156 L 24.175781 -14.988281 L 37.851562 -23.761719 L 37.851562 -34.8125 L 2.070312 -34.8125 L 2.070312 -23.484375 L 13.609375 -23.484375 L 20.859375 -24.039062 L 20.859375 -23.140625 L 13.609375 -19.480469 L 1.035156 -11.050781 L 1.035156 0 Z M 38.890625 0 "/></g></g></g></svg>